<svg id="Layer_1" data-name="Layer 1" xmlns="http://www.w3.org/2000/svg" viewBox="0 0 227.49 149"><circle cx="52.99" cy="120.5" r="28"/><path d="M79.25,158.5A27.5,27.5,0,1,1,51.75,186a27.54,27.54,0,0,1,27.5-27.5m0-1a28.5,28.5,0,1,0,28.5,28.5,28.5,28.5,0,0,0-28.5-28.5Z" transform="translate(-26.25 -65.5)"/><circle cx="142.99" cy="120.5" r="28"/><path d="M169.25,158.5a27.5,27.5,0,1,1-27.5,27.5,27.54,27.54,0,0,1,27.5-27.5m0-1a28.5,28.5,0,1,0,28.5,28.5,28.5,28.5,0,0,0-28.5-28.5Z" transform="translate(-26.25 -65.5)"/><path d="M64.26,155a3.56,3.56,0,0,1-3.19-2L27.14,85.16A3.56,3.56,0,0,1,30.33,80H215.6a3.56,3.56,0,0,1,3.47,4.39L203,152.25a3.55,3.55,0,0,1-3.47,2.75Z" transform="translate(-26.25 -65.5)"/><path d="M215.6,80.5A3,3,0,0,1,218,81.67a3.09,3.09,0,0,1,.58,2.61l-16.08,67.86a3,3,0,0,1-3,2.36H64.26a3,3,0,0,1-2.74-1.7L27.58,84.94a3.08,3.08,0,0,1,2.75-4.44H215.6m0-1H30.33a4.07,4.07,0,0,0-3.64,5.89l33.93,67.86a4.07,4.07,0,0,0,3.64,2.25H199.53a4.08,4.08,0,0,0,4-3.13l16.07-67.86a4.07,4.07,0,0,0-4-5Z" transform="translate(-26.25 -65.5)"/><path d="M201.25,72a3,3,0,0,1,0-6h49a3,3,0,0,1,0,6Z" transform="translate(-26.25 -65.5)"/><path d="M250.25,66.5a2.5,2.5,0,0,1,0,5h-49a2.5,2.5,0,0,1,0-5h49m0-1h-49a3.5,3.5,0,0,0,0,7h49a3.5,3.5,0,0,0,0-7Z" transform="translate(-26.25 -65.5)"/></svg>