<svg id="Layer_1" data-name="Layer 1" xmlns="http://www.w3.org/2000/svg" viewBox="0 0 213.38 196.13"><path d="M183.83,48.94a55.87,55.87,0,0,1,40.51,94.34l-.87.92-82.08,84L57.64,146.29l-1.1-1.11a55.87,55.87,0,0,1,78.11-79.9l.9.84,4,3.91.08-.07.06.06,3.71-3.81,1.05-1a55.54,55.54,0,0,1,39.39-16.23m0-7A62.74,62.74,0,0,0,139.5,60.2h0a62.89,62.89,0,0,0-88.25,1.65h0a62.89,62.89,0,0,0,.35,88.27h0l.67.66h0l89.28,87.27,87.27-89.27h0l.66-.67,0,0a62.88,62.88,0,0,0-1.65-88.25h0a62.64,62.64,0,0,0-43.94-17.91Z" transform="translate(-33.31 -41.94)"/></svg>