<?xml version="1.0" encoding="utf-8"?>
<!-- Generator: Adobe Illustrator 25.4.1, SVG Export Plug-In . SVG Version: 6.00 Build 0)  -->
<svg version="1.1" id="Layer_1" xmlns="http://www.w3.org/2000/svg" xmlns:xlink="http://www.w3.org/1999/xlink" x="0px" y="0px"
	 viewBox="0 0 463.7 189.7" style="enable-background:new 0 0 463.7 189.7;" xml:space="preserve">
<style type="text/css">
	.st0{fill:#262626;}
	.st1{opacity:0.9;fill:#F5F2F0;}
	.st2{opacity:0.57;fill:#262626;}
</style>
<g>
	<g>
		<path class="st0" d="M163.8,226.2c2.2-2.8,4.8-3,7.4-2.6c1.3-2,2.8-3.8,4-5.5c1.8-2.3,4.3-5.1-1.1-5.3c-4.9-0.2-12.1,2.4-15.4,8.1
			c-2.8,4.8-1.8,10.1,1.2,11.8c0.3,0.2,0.1,0.4-0.2,0.3c-4.1-1.4-5.8-8.4-2.5-13.5c4.3-6.7,11.8-7.5,17.6-7.5c0.7,0,3.8,0.2,4.5,2.5
			c0.4,1.2-0.5,2.2-2.4,4.7c-0.3,0.3-1.8,2.3-3.4,4.7c2.8,0.6,6,1.3,8.3,1.5c1.2,0.1,1.9,0,2.5-0.2c3.6-6,7.7-12.2,10.1-13.9
			c1.1-0.8,3.8-0.1,3.9-0.1c0.1,0,0.2,0.3,0,0.3c-0.1,0-0.5,0-0.8,0.2c-2.5,1-7.1,7.4-11,13.9c-2.6,4.3-6.8,12-7.1,16
			c0,0.3-0.2,0.3-0.3,0.2c-0.3-0.2-1.1-0.7-1.3-1.1c-0.1-0.2-0.1-0.6-0.1-0.7c0.2-1.3,2-6.6,5.7-13c-0.5,0.3-0.9,0.4-1.6,0.3
			c-2.3-0.1-5.9-1.2-9.1-2c-3.3,3.9-8.1,14.6-7.9,17.3c0,0.3-0.2,0.3-0.3,0.2c-0.3-0.2-1-0.7-1.3-1.1c-0.1-0.2-0.1-0.6-0.1-0.7
			c0.9-4.7,4.4-11.8,7.4-16.1c-2.1-0.4-4.4-0.2-6.5,1.7C163.8,226.6,163.7,226.4,163.8,226.2z"/>
		<path class="st0" d="M188.6,241.3c-2,0.5-4.2,0-4.5-2.7c-0.3-2.2,0.8-4.8,2.1-6.3c2.8-3.6,6.2-4.3,7.6-4.1
			c1.1,0.1,1.8,0.5,2.3,1.1c0.2,0.3,0,0.4-0.3,0.2c-0.5-0.3-2.1-0.3-2.9,0c-1,0.4-3,1.1-5.3,4.3c-1.1,1.5-2,3.3-2,4.9
			c0,1.8,1.2,2.3,2.7,1.8c1.9-0.8,3.5-2.5,5.1-5.5c0.8-1.6,1.1-3.9,0.6-4.4c-0.2-0.3-0.1-0.4,0.1-0.3c0.7,0.2,1.6,0.7,1.8,1
			c0.5,1,0.1,2.9-1.2,5.2C193,239.4,190.7,240.8,188.6,241.3z"/>
		<path class="st0" d="M214.2,239.2c1.9-0.7,6.1-4.9,6.3-5.4c0-0.1,0.2-0.1,0.2,0c0,0.1,0,0.8-0.3,1.1c-0.4,0.6-5.1,5.4-7.5,5.6
			c-1.6,0.1-2-1.6-1.2-3.5c0.7-1.6,2.3-4.2,3.4-6c0.8-1.4,1.2-2.7-0.2-2.4c-1,0.2-2.9,1.8-4.2,3.1c-1.8,1.9-4,4.3-4.6,5.5
			c-0.8,1.3-1.2,2.4-1.3,3.1c0,0.3-0.1,0.3-0.3,0.2c-0.3-0.2-0.8-0.7-1.1-1.1c-0.1-0.2-0.1-0.4-0.1-0.6c0.9-2.6,2.2-4.8,3.6-7.5
			c0.4-0.8,1.7-3,0-2.5c-0.9,0.3-2.4,1.4-3.7,2.6c-2.1,2-4.9,5.1-5.7,6.3c-0.8,1.2-1.6,2.4-1.5,2.9c0,0.2-0.1,0.4-0.3,0.2
			c-0.3-0.3-0.8-0.8-1.1-1.3c-0.1-0.2-0.1-0.4,0-0.6c2.5-5,6.3-9.5,6-11.1c-0.1-0.2,0-0.3,0.2-0.1c0.1,0.1,1.6,1.3,1,2.5
			c-0.3,0.8-1.6,2.8-2.3,3.9c-0.1,0.2,0,0.3,0.1,0.1c0.7-0.7,2.1-2.3,3.3-3.5c2-1.9,3-2.4,4.1-2.9c1.6-0.6,3.6-0.1,2.2,2.7
			c-0.5,1-1.3,2.4-1.8,3.3c-0.1,0.1,0,0.2,0.1,0.1c0.5-0.6,1.7-1.9,3.1-3.4c1.9-2,3.2-2.7,4.2-3c1.5-0.4,3.7-0.2,2.5,2.7
			c-0.8,2-3.2,5.1-4.2,7.2C212.7,239.4,213.8,239.4,214.2,239.2z"/>
		<path class="st0" d="M220.5,239c1.5,2,6.2-1.3,7.1-2.7c0.1-0.1,0.3-0.2,0.3,0c0,0-0.2,1.5-0.5,1.8c-1.6,1.6-6,3.3-7.8,1.2
			c-1.5-1.8-1-5.1,1.5-8.1c3.3-3.9,8.1-4.5,9.7-3.3c1.5,1.2,0.5,3.6-1.5,5c-1.8,1.2-4.3,1.1-5.7,0.5c-0.2-0.1-0.1-0.4,0.1-0.3
			c1,0.3,3.1-0.4,4.7-1.4c1.4-1,2.7-2.5,2-3.1c-1.1-0.8-5.1,1.1-7.6,4.1C221.4,234.1,219.4,237.5,220.5,239z"/>
		<path class="st0" d="M273.6,227.5c-2.3,4.6-6.5,10-12.2,12c-4,1.3-9.2,0.7-12.2-1.6c0,0-0.2-0.2-0.1-0.4c0.1-0.1,0.2-0.1,0.4,0
			c2.3,1.6,8,2.1,11.6,0.4c4.7-2.2,8.4-6.4,10.6-11.1c2.7-5.8,3.3-10.5-1-13.5c-0.7-0.5-1.6-0.9-2.6-1.2c-0.3,0-0.9,0.2-1.1,0.4
			c-3,1.7-8.1,7.3-12.6,13.5c-3.4,4.7-6.9,11.8-6.9,14c0,0.3-0.2,0.3-0.4,0.2c-0.3-0.2-1-0.8-1.3-1.2c-0.1-0.2,0-0.6,0-0.7
			c0.3-1.3,3.4-8.1,7-13.2c4.4-6.3,7-9.1,10.4-11.9c1.2-1,3.5-1.1,3.8-1.1c-3.3-1-8.1-0.5-11.5,0.6c-6.8,2.1-11.9,6.8-11.9,11.7
			c0,2,0.4,4.3,2.1,5.6c0.1,0.1,0.2,0.2,0.1,0.3c-0.1,0.1-0.2,0-0.3,0c-2.1-1.1-3.2-3.8-3.2-6.1c0-5.8,4.7-10.9,12.4-13
			c4.9-1.4,14.6-1.2,18.3,2.1C277.4,217,276.3,222.3,273.6,227.5z"/>
		<path class="st0" d="M272.8,239.4c1.4,2.1,6.2-0.9,7.2-2.3c0.1-0.1,0.3-0.2,0.3,0c0,0-0.2,1.5-0.6,1.8c-1.6,1.6-6.2,3-7.8,0.8
			c-1.4-1.9-0.8-5.1,1.9-8c3.5-3.8,8.3-4.1,9.9-2.8c1.5,1.2,0.3,3.7-1.8,4.9c-1.9,1.1-4.4,0.9-5.7,0.2c-0.2-0.1-0.1-0.4,0.1-0.3
			c0.9,0.3,3.1-0.2,4.7-1.2c1.5-0.9,2.8-2.4,2.1-3c-1.1-0.9-5.2,0.8-7.8,3.7C273.9,234.6,271.8,237.8,272.8,239.4z"/>
		<path class="st0" d="M292.1,237.8c0,0-0.3,1.5-0.7,1.8c-1.7,1.5-5.7,2.7-7.3,1c-1.6-1.8-1.4-5,1.4-8.1c3.4-3.7,7.8-4.4,9.5-3.4
			c1.3,0.8,1.8,1.8,1.6,2.6c-0.2,0.9-0.9,1.5-1.9,1.8c-0.2,0.1-0.3-0.1-0.2-0.2c0.5-0.7,1.4-2.8,0.1-3.3c-1.7-0.6-5,0.8-7.5,3.7
			c-1.9,2.2-3,4.8-2.3,6c1.1,1.9,5.8-0.4,7-2C291.9,237.5,292.1,237.6,292.1,237.8z"/>
		<path class="st0" d="M297.5,241.8c-2,0.3-4.2-0.5-4.2-3.1c0-2.2,1.3-4.7,2.7-6.1c3.1-3.3,6.6-3.6,8-3.3c1.1,0.2,1.7,0.7,2.2,1.4
			c0.2,0.3-0.1,0.4-0.3,0.2c-0.4-0.3-2-0.5-2.9-0.3c-1,0.3-3.1,0.8-5.7,3.8c-1.3,1.4-2.4,3.1-2.5,4.6c-0.1,1.7,1,2.4,2.5,2
			c2-0.6,3.8-2.1,5.7-4.9c1-1.5,1.5-3.7,1.1-4.3c-0.2-0.3-0.1-0.4,0.1-0.3c0.7,0.3,1.5,0.9,1.7,1.2c0.4,1.1-0.2,2.9-1.8,5
			C302.1,240.4,299.6,241.5,297.5,241.8z"/>
		<path class="st0" d="M306.9,238.9c-0.9,1.1-1.9,2.4-2,3.2c-0.1,0.4-0.2,0.3-0.3,0.2c-0.3-0.2-0.7-0.9-0.9-1.4
			c-0.1-0.2-0.1-0.4,0-0.5c3-4.7,7.5-9.2,7.2-10.4c-0.1-0.3,0.2-0.3,0.3-0.1c0.1,0.1,1.3,1.4,0.6,2.5c-0.5,0.9-1.9,2.6-2.7,3.5
			c-0.1,0.2,0,0.3,0.2,0.1c0.6-0.5,2-1.6,3.6-2.7c2.1-1.5,3-2.1,4.2-2.5c1.4-0.5,3.6-0.4,3.2,1.6c-0.4,1.7-2.1,2.6-2.5,2.8
			c-0.1,0.1-0.3-0.1-0.2-0.2c0.5-0.8,0.9-1.5,1-2.5c0-0.9-1.5-0.7-2.5-0.2C313.3,233.4,307.7,237.8,306.9,238.9z"/>
	</g>
</g>
<g>
	<path class="st1" d="M271.1,169.7h-78.5c-8.9,0-16.1-7.2-16.1-16.1V36.1c0-8.9,7.2-16.1,16.1-16.1h78.5c8.9,0,16.1,7.2,16.1,16.1
		v117.5C287.1,162.5,280,169.7,271.1,169.7z"/>
	<g>
		<path class="st0" d="M219.7,132.6c4.8-1.4,17.8,2.9,17.7-4.4c-1.2-4.9-25.4,3.2-34.9-7.5c-11.6-28.4-29.7-50-2.2,11"/>
		
			<ellipse transform="matrix(0.3508 -0.9365 0.9365 0.3508 -1.2977 282.7004)" class="st0" cx="203.2" cy="142.3" rx="9.9" ry="1.9"/>
		<ellipse transform="matrix(0.9363 -0.3513 0.3513 0.9363 -36.4532 85.0729)" class="st0" cx="216.2" cy="143" rx="1.9" ry="9.9"/>
	</g>
	<path class="st0" d="M220,108.7v-3.8c0-0.2,0.2-0.4,0.4-0.4h66.1c0.2,0,0.4,0.2,0.4,0.4v5c0,0.2-0.2,0.4-0.4,0.4h-64.9
		C220.7,110.3,220,109.6,220,108.7z"/>
	
		<rect x="231.1" y="20" transform="matrix(-1 -1.224647e-16 1.224647e-16 -1 463.6956 80.825)" class="st0" width="1.5" height="40.7"/>
	<path class="st0" d="M252.4,75.3h-40.7v-6.8c0-4.3,3.5-7.8,7.8-7.8h25.2c4.3,0,7.8,3.5,7.8,7.8V75.3z"/>
	<circle class="st2" cx="232" cy="73.6" r="5.3"/>
</g>
<g>
	<g>
		<path d="M31.8,80.1c4.2-4.8,8.8-5,13.3-4.1c2.5-3.5,5.2-6.6,7.6-9.5c3.4-4,8-8.7-1.6-9.4c-8.7-0.6-21.8,3.4-28.1,13.5
			c-5.2,8.3-3.8,17.9,1.5,21c0.5,0.3,0.1,0.7-0.4,0.5c-7.2-2.6-9.9-15.2-3.7-24.1c8.1-11.7,21.6-12.6,32-12.2c1.3,0,6.7,0.7,7.9,4.7
			c0.6,2.2-1.1,3.9-4.6,8.2c-0.5,0.6-3.4,3.9-6.5,8.1c5,1.3,10.5,2.7,14.8,3.2c2.2,0.3,3.4,0.1,4.5-0.1c6.8-10.3,14.7-21.1,19.2-24
			c2.1-1.4,6.7,0,7,0.1c0.2,0.1,0.3,0.6-0.1,0.6c-0.2,0-0.8,0-1.5,0.2c-4.6,1.5-13.2,12.6-20.7,23.8c-4.9,7.4-13,20.8-13.8,27.9
			c-0.1,0.5-0.3,0.6-0.6,0.3c-0.6-0.4-1.9-1.3-2.3-2.1c-0.2-0.3-0.1-1.1-0.1-1.3c0.4-2.3,3.9-11.5,11.1-22.7
			c-0.9,0.4-1.6,0.6-2.8,0.4c-4.2-0.3-10.4-2.5-16-4.2c-6.1,6.8-15.4,25.4-15.2,30.3c0,0.5-0.3,0.6-0.6,0.3
			c-0.6-0.4-1.7-1.3-2.2-2.1c-0.2-0.3-0.2-1.1-0.1-1.3c1.8-8.3,8.6-20.7,14.2-28.2c-3.8-0.9-7.8-0.6-11.6,2.5
			C31.8,80.8,31.6,80.4,31.8,80.1z"/>
		<path d="M74.9,108.6c-3.5,0.7-7.4-0.3-7.8-5c-0.3-3.9,1.8-8.4,4.2-11.1c5.2-6.1,11.4-7.1,13.8-6.7c2,0.3,3.2,1,4.1,2.2
			c0.4,0.6-0.1,0.6-0.5,0.4c-0.8-0.5-3.7-0.7-5.2-0.2c-1.8,0.6-5.4,1.8-9.8,7.3c-2.1,2.6-3.8,5.8-3.9,8.5c0,3.1,2,4.2,4.6,3.3
			c3.5-1.2,6.5-4.2,9.5-9.4c1.6-2.7,2.2-6.8,1.5-7.8c-0.4-0.6-0.2-0.7,0.2-0.6c1.3,0.5,2.8,1.4,3.1,1.9c0.8,1.8-0.1,5.1-2.6,9.1
			C82.9,105.5,78.6,107.8,74.9,108.6z"/>
		<path d="M120.6,107c3.5-1,11.3-8.1,11.7-9.1c0.1-0.2,0.3-0.2,0.3,0.1c0,0.2-0.1,1.4-0.6,2c-0.9,1-9.6,9.1-13.8,9.2
			c-2.9,0.1-3.5-3-1.8-6.3c1.4-2.8,4.5-7.3,6.6-10.4c1.6-2.4,2.3-4.7-0.1-4.3c-1.9,0.3-5.4,2.9-7.7,5.2c-3.4,3.3-7.4,7.4-8.7,9.4
			c-1.5,2.3-2.3,4.1-2.5,5.5c-0.1,0.6-0.2,0.6-0.6,0.3c-0.5-0.3-1.4-1.3-1.8-2.1c-0.2-0.3-0.2-0.6-0.1-1c1.8-4.5,4.3-8.3,7-13
			c0.8-1.4,3.3-5.2,0.2-4.5c-1.6,0.4-4.3,2.3-6.7,4.4c-3.9,3.5-9.1,8.6-10.7,10.7c-1.5,2.1-3,4.1-2.9,5.1c0,0.4-0.2,0.6-0.5,0.4
			c-0.6-0.5-1.4-1.5-1.8-2.4c-0.2-0.3-0.2-0.7,0.1-1.1c4.7-8.6,12-16.4,11.5-19.2c-0.1-0.4,0.1-0.5,0.3-0.2c0.2,0.2,2.7,2.4,1.7,4.6
			c-0.7,1.4-3.1,4.8-4.4,6.7c-0.2,0.3-0.1,0.6,0.2,0.2c1.2-1.2,3.8-3.9,6.2-5.9c3.7-3.2,5.5-4.1,7.5-4.8c2.9-1,6.3,0.1,3.7,5
			c-1,1.8-2.5,4.1-3.5,5.8c-0.2,0.2,0,0.4,0.2,0.2c1-1,3.1-3.3,5.8-5.8c3.6-3.4,6-4.5,7.8-4.9c2.6-0.7,6.7,0,4.2,5
			c-1.6,3.5-6.2,8.7-8,12.4C117.9,107.1,119.8,107.2,120.6,107z"/>
		<path d="M131.8,107c2.4,3.7,11-1.7,12.8-4.1c0.2-0.2,0.5-0.3,0.5,0c0,0-0.4,2.7-1,3.2c-2.9,2.8-11,5.3-13.9,1.4
			c-2.5-3.4-1.4-9.1,3.5-14.3c6.2-6.7,14.8-7.3,17.6-4.9c2.6,2.2,0.5,6.5-3.2,8.7c-3.4,2-7.8,1.6-10.2,0.3c-0.4-0.2-0.1-0.6,0.2-0.6
			c1.7,0.5,5.6-0.3,8.4-2.1c2.7-1.6,5.1-4.3,3.8-5.4c-1.9-1.6-9.3,1.4-14,6.6C133.7,98.5,129.9,104.3,131.8,107z"/>
	</g>
</g>
<g>
	<g>
		<path d="M364,84.9c-3.8,8.3-10.7,18.3-20.7,22.3c-6.9,2.7-16.3,2.1-21.9-1.9c0,0-0.3-0.3-0.2-0.6c0.2-0.2,0.4-0.3,0.7,0
			c4.3,2.5,14.4,3,20.6-0.2c8.1-4.3,14.4-12.1,18-20.5c4.4-10.4,5.2-18.9-2.8-24c-1.3-0.9-2.9-1.5-4.7-1.9c-0.5,0.1-1.6,0.5-2,0.8
			c-5.3,3.2-13.9,13.6-21.4,24.9c-5.6,8.6-11.3,21.6-11.1,25.4c0,0.5-0.3,0.6-0.6,0.3c-0.6-0.4-1.9-1.3-2.3-2.1
			c-0.2-0.3-0.1-1.1-0.1-1.3c0.4-2.3,5.2-14.6,11.3-24.1c7.4-11.5,11.8-16.7,17.6-21.9c2.1-1.9,6.2-2.3,6.7-2.3
			c-6-1.5-14.6-0.2-20.6,2c-12,4.3-20.6,13-20.2,21.8c0.2,3.5,1.1,7.6,4.2,9.7c0.2,0.2,0.3,0.3,0.2,0.5c-0.2,0.2-0.4,0.1-0.6,0
			c-3.9-1.8-6-6.5-6.2-10.6c-0.5-10.2,7.4-19.8,20.9-24.2c8.7-2.9,26-3.3,32.9,2.2C369.9,65.8,368.4,75.3,364,84.9z"/>
		<path d="M363.5,106c2.6,3.6,11-2.2,12.6-4.6c0.2-0.2,0.5-0.3,0.5,0c0,0-0.3,2.7-0.9,3.3c-2.8,2.9-10.8,5.8-13.9,2
			c-2.6-3.2-1.8-9,2.8-14.4c5.9-6.9,14.4-7.9,17.3-5.7c2.7,2.1,0.8,6.5-2.8,8.8c-3.3,2.2-7.7,1.9-10.2,0.7c-0.4-0.2-0.2-0.6,0.2-0.6
			c1.7,0.5,5.6-0.6,8.3-2.5c2.6-1.8,4.9-4.5,3.6-5.5c-1.9-1.5-9.2,1.8-13.7,7.2C365.1,97.4,361.5,103.3,363.5,106z"/>
		<path d="M397.5,101.8c0,0-0.5,2.6-1.2,3.2c-2.8,2.8-10,5.2-12.8,2.3c-3-3-2.8-8.8,1.9-14.5c5.7-6.9,13.6-8.3,16.6-6.6
			c2.4,1.3,3.4,3.1,3.1,4.5c-0.4,1.6-1.6,2.7-3.2,3.3c-0.3,0.2-0.6-0.2-0.4-0.4c0.9-1.3,2.3-5.1-0.1-5.8c-3-1-8.8,1.8-13.1,7.1
			c-3.3,4.1-5,8.8-3.7,10.9c2.1,3.3,10.3-1.1,12.3-4C397.2,101.3,397.6,101.4,397.5,101.8z"/>
		<path d="M407.4,108.6c-3.5,0.6-7.4-0.5-7.7-5.3c-0.2-3.9,2.1-8.4,4.5-11c5.4-6,11.6-6.8,14-6.3c1.9,0.4,3.1,1.1,4,2.3
			c0.4,0.6-0.1,0.6-0.5,0.4c-0.8-0.5-3.6-0.8-5.2-0.4c-1.8,0.5-5.4,1.6-10,7.1c-2.2,2.5-4,5.7-4.1,8.4c-0.1,3.1,1.9,4.3,4.5,3.4
			c3.5-1.1,6.6-4,9.8-9.1c1.7-2.7,2.4-6.7,1.7-7.8c-0.4-0.6-0.1-0.7,0.2-0.6c1.3,0.5,2.8,1.4,3,2c0.8,1.9-0.2,5.1-2.8,9
			C415.5,105.6,411.2,107.8,407.4,108.6z"/>
		<path d="M423.9,102.7c-1.5,2-3.2,4.4-3.4,5.7c-0.1,0.6-0.3,0.6-0.6,0.3c-0.5-0.4-1.3-1.6-1.7-2.4c-0.2-0.3-0.1-0.7,0-1
			c5-8.5,12.8-16.8,12.1-19c-0.1-0.5,0.3-0.5,0.6-0.2c0.2,0.2,2.4,2.3,1.3,4.5c-0.8,1.6-3.2,4.7-4.5,6.4c-0.3,0.3,0,0.5,0.3,0.2
			c1.1-0.8,3.5-3,6.2-5c3.6-2.7,5.3-3.9,7.3-4.7c2.4-1,6.5-0.9,5.8,2.6c-0.6,3-3.5,4.7-4.4,5.1c-0.2,0.1-0.5-0.1-0.3-0.3
			c0.9-1.4,1.6-2.7,1.6-4.5c0-1.7-2.7-1.2-4.5-0.2C435,92.6,425.3,100.7,423.9,102.7z"/>
	</g>
</g>
</svg>
